<?xml version="1.0" encoding="UTF-8" standalone="no"?><!-- Generator: Gravit.io --><svg xmlns="http://www.w3.org/2000/svg" xmlns:xlink="http://www.w3.org/1999/xlink" style="isolation:isolate" viewBox="0 0 16.001 12" width="16.001pt" height="12pt"><defs><clipPath id="_clipPath_YezoxayiVlBW3zq3dw9DScFvs5WAqyBS"><rect x="0" y="0" width="16.001" height="12"/></clipPath></defs><g clip-path="url(#_clipPath_YezoxayiVlBW3zq3dw9DScFvs5WAqyBS)"><g><path d=" M 10 10.5 C 10 10.776 9.776 11 9.5 11 L 1.5 11 C 1.224 11 1 10.776 1 10.5 L 1 1.5 C 1 1.224 1.224 1 1.5 1 L 9.5 1 C 9.776 1 10 1.224 10 1.5 L 10 3.5 C 10 3.776 10.224 4 10.5 4 C 10.776 4 11 3.776 11 3.5 L 11 1.5 C 11 0.672 10.328 0 9.5 0 L 1.5 0 C 0.672 0 0 0.672 0 1.5 L 0 10.5 C 0 11.328 0.672 12 1.5 12 L 9.5 12 C 10.328 12 11 11.328 11 10.5 L 11 8.5 C 11 8.224 10.776 8 10.5 8 C 10.224 8 10 8.224 10 8.5 L 10 10.5 Z " fill-rule="evenodd" fill="rgb(255,255,255)"/><path d=" M 15.854 6.354 C 15.948 6.26 16.001 6.133 16.001 6 C 16.001 5.867 15.948 5.74 15.854 5.646 L 12.854 2.646 C 12.658 2.45 12.342 2.45 12.146 2.646 C 11.95 2.842 11.95 3.158 12.146 3.354 L 14.293 5.5 L 5.5 5.5 C 5.224 5.5 5 5.724 5 6 C 5 6.276 5.224 6.5 5.5 6.5 L 14.293 6.5 L 12.146 8.646 C 11.95 8.842 11.95 9.158 12.146 9.354 C 12.342 9.55 12.658 9.55 12.854 9.354 L 15.854 6.354 Z " fill-rule="evenodd" fill="rgb(255,255,255)"/></g></g></svg>