<?xml version="1.0" encoding="UTF-8" standalone="no"?><!-- Generator: Gravit.io --><svg xmlns="http://www.w3.org/2000/svg" xmlns:xlink="http://www.w3.org/1999/xlink" style="isolation:isolate" viewBox="0 0 13 16" width="13pt" height="16pt"><defs><clipPath id="_clipPath_FZKkioLcZoQNUOBQdpJ8oBPdwK6udQIV"><rect x="0" y="0" width="13" height="16"/></clipPath></defs><g clip-path="url(#_clipPath_FZKkioLcZoQNUOBQdpJ8oBPdwK6udQIV)"><path d=" M 11 0 L 4 0 C 2.895 0 2 0.895 2 2 C 0.895 2 0 2.895 0 4 L 0 14 C 0 15.105 0.895 16 2 16 L 9 16 C 10.105 16 11 15.105 11 14 C 12.105 14 13 13.105 13 12 L 13 2 C 13 0.895 12.105 0 11 0 Z  M 11 13 L 11 4 C 11 2.895 10.105 2 9 2 L 3 2 C 3 1.448 3.448 1 4 1 L 11 1 C 11.552 1 12 1.448 12 2 L 12 12 C 12 12.552 11.552 13 11 13 Z  M 1 4 C 1 3.448 1.448 3 2 3 L 9 3 C 9.552 3 10 3.448 10 4 L 10 14 C 10 14.552 9.552 15 9 15 L 2 15 C 1.448 15 1 14.552 1 14 L 1 4 Z " fill="rgb(255,255,255)"/></g></svg>