<?xml version="1.0" encoding="UTF-8" standalone="no"?><!-- Generator: Gravit.io --><svg xmlns="http://www.w3.org/2000/svg" xmlns:xlink="http://www.w3.org/1999/xlink" style="isolation:isolate" viewBox="0 0 16 14" width="16pt" height="14pt"><defs><clipPath id="_clipPath_nB3Me4derssoRL1tW6KIQMCf2tsCkdjL"><rect x="0" y="0" width="16" height="14"/></clipPath></defs><g clip-path="url(#_clipPath_nB3Me4derssoRL1tW6KIQMCf2tsCkdjL)"><g><path d=" M 6 4.5 C 6 5.328 5.328 6 4.5 6 C 3.672 6 3 5.328 3 4.5 C 3 3.672 3.672 3 4.5 3 C 5.328 3 6 3.672 6 4.5 Z " fill="rgb(255,255,255)"/><path d=" M 2 0 C 0.895 0 0 0.895 0 2 L 0 12 C 0 13.105 0.895 14 2 14 L 14 14 C 15.105 14 16 13.105 16 12 L 16 2 C 16 0.895 15.105 0 14 0 L 2 0 Z  M 14 1 C 14.552 1 15 1.448 15 2 L 15 8.5 L 11.223 6.553 C 11.031 6.457 10.798 6.494 10.646 6.646 L 6.936 10.356 L 4.276 8.584 C 4.078 8.452 3.815 8.478 3.646 8.646 L 1 11 L 1 2 C 1 1.448 1.448 1 2 1 L 14 1 Z " fill="rgb(255,255,255)"/></g></g></svg>