<?xml version="1.0" encoding="UTF-8" standalone="no"?><!-- Generator: Gravit.io --><svg xmlns="http://www.w3.org/2000/svg" xmlns:xlink="http://www.w3.org/1999/xlink" style="isolation:isolate" viewBox="0 0 16 12" width="16pt" height="12pt"><defs><clipPath id="_clipPath_ByDRiwGwNjSL4ZdJlol31dI2a8nzmOFA"><rect x="0" y="0" width="16" height="12"/></clipPath></defs><g clip-path="url(#_clipPath_ByDRiwGwNjSL4ZdJlol31dI2a8nzmOFA)"><g><path d=" M 6 10.5 C 6 10.776 6.224 11 6.5 11 L 14.5 11 C 14.776 11 15 10.776 15 10.5 L 15 1.5 C 15 1.224 14.776 1 14.5 1 L 6.5 1 C 6.224 1 6 1.224 6 1.5 L 6 3.5 C 6 3.776 5.776 4 5.5 4 C 5.224 4 5 3.776 5 3.5 L 5 1.5 C 5 0.672 5.672 0 6.5 0 L 14.5 0 C 15.328 0 16 0.672 16 1.5 L 16 10.5 C 16 11.328 15.328 12 14.5 12 L 6.5 12 C 5.672 12 5 11.328 5 10.5 L 5 8.5 C 5 8.224 5.224 8 5.5 8 C 5.776 8 6 8.224 6 8.5 L 6 10.5 Z " fill-rule="evenodd" fill="rgb(255,255,255)"/><path d=" M 10.854 6.354 C 10.948 6.26 11.001 6.133 11.001 6 C 11.001 5.867 10.948 5.74 10.854 5.646 L 7.854 2.646 C 7.658 2.45 7.342 2.45 7.146 2.646 C 6.95 2.842 6.95 3.158 7.146 3.354 L 9.293 5.5 L 0.5 5.5 C 0.224 5.5 0 5.724 0 6 C 0 6.276 0.224 6.5 0.5 6.5 L 9.293 6.5 L 7.146 8.646 C 6.95 8.842 6.95 9.158 7.146 9.354 C 7.342 9.55 7.658 9.55 7.854 9.354 L 10.854 6.354 Z " fill-rule="evenodd" fill="rgb(255,255,255)"/></g></g></svg>