<?xml version="1.0" encoding="UTF-8" standalone="no"?><!-- Generator: Gravit.io --><svg xmlns="http://www.w3.org/2000/svg" xmlns:xlink="http://www.w3.org/1999/xlink" style="isolation:isolate" viewBox="0 0 14 10.714" width="14pt" height="10.714pt"><defs><clipPath id="_clipPath_kMI5E6GK4sMdcTFb193jFqseO6Xsa9iv"><rect x="0" y="0" width="14" height="10.714"/></clipPath></defs><g clip-path="url(#_clipPath_kMI5E6GK4sMdcTFb193jFqseO6Xsa9iv)"><g><path d=" M 4 9.166 C 4 8.89 4.224 8.666 4.5 8.666 L 13.5 8.666 C 13.776 8.666 14 8.89 14 9.166 C 14 9.442 13.776 9.666 13.5 9.666 L 4.5 9.666 C 4.224 9.666 4 9.442 4 9.166 Z  M 4 5.166 C 4 4.89 4.224 4.666 4.5 4.666 L 13.5 4.666 C 13.776 4.666 14 4.89 14 5.166 C 14 5.442 13.776 5.666 13.5 5.666 L 4.5 5.666 C 4.224 5.666 4 5.442 4 5.166 Z  M 4 1.166 C 4 0.89 4.224 0.666 4.5 0.666 L 13.5 0.666 C 13.776 0.666 14 0.89 14 1.166 C 14 1.442 13.776 1.666 13.5 1.666 L 4.5 1.666 C 4.224 1.666 4 1.442 4 1.166 Z " fill-rule="evenodd" fill="rgb(255,255,255)"/><path d=" M 0.713 9.531 L 0.713 9.057 L 1 9.057 C 1.217 9.057 1.363 8.92 1.363 8.74 C 1.363 8.555 1.205 8.43 1.002 8.43 C 0.779 8.43 0.635 8.582 0.629 8.74 L 0.039 8.74 C 0.055 8.273 0.412 7.953 1.025 7.953 C 1.613 7.951 1.979 8.244 1.982 8.656 C 1.986 8.948 1.778 9.199 1.49 9.25 L 1.49 9.283 C 1.818 9.307 2.068 9.585 2.059 9.914 C 2.062 10.447 1.557 10.714 1.008 10.714 C 0.352 10.714 0.008 10.344 0 9.92 L 0.582 9.92 C 0.59 10.098 0.768 10.226 1.004 10.229 C 1.258 10.229 1.428 10.084 1.426 9.879 C 1.424 9.684 1.271 9.531 1.012 9.531 L 0.712 9.531 L 0.713 9.531 Z  M 0.709 4.832 L 0.105 4.832 L 0.105 4.797 C 0.105 4.389 0.4 3.953 1.063 3.953 C 1.646 3.953 2.023 4.279 2.023 4.709 C 2.023 5.098 1.766 5.326 1.547 5.557 L 1.01 6.129 L 1.01 6.159 L 2.064 6.159 L 2.064 6.666 L 0.143 6.666 L 0.143 6.271 L 1.1 5.281 C 1.238 5.139 1.393 4.977 1.393 4.773 C 1.393 4.593 1.246 4.453 1.051 4.453 C 0.96 4.45 0.872 4.484 0.807 4.548 C 0.742 4.612 0.707 4.7 0.709 4.791 L 0.709 4.832 Z  M 1.564 2.666 L 0.929 2.666 L 0.929 0.59 L 0.898 0.59 L 0.3 1.01 L 0.3 0.443 L 0.929 0 L 1.564 0 L 1.564 2.666 Z " fill="rgb(255,255,255)"/></g></g></svg>