<?xml version="1.0" encoding="UTF-8" standalone="no"?><!-- Generator: Gravit.io --><svg xmlns="http://www.w3.org/2000/svg" xmlns:xlink="http://www.w3.org/1999/xlink" style="isolation:isolate" viewBox="0 0 14 10" width="14pt" height="10pt"><defs><clipPath id="_clipPath_QRYk7L5jqQK1hs5ZfZ31OSuRyYFHEvdQ"><rect x="0" y="0" width="14" height="10"/></clipPath></defs><g clip-path="url(#_clipPath_QRYk7L5jqQK1hs5ZfZ31OSuRyYFHEvdQ)"><path d=" M 4 9 C 4 8.724 4.224 8.5 4.5 8.5 L 13.5 8.5 C 13.776 8.5 14 8.724 14 9 C 14 9.276 13.776 9.5 13.5 9.5 L 4.5 9.5 C 4.224 9.5 4 9.276 4 9 Z  M 4 5 C 4 4.724 4.224 4.5 4.5 4.5 L 13.5 4.5 C 13.776 4.5 14 4.724 14 5 C 14 5.276 13.776 5.5 13.5 5.5 L 4.5 5.5 C 4.224 5.5 4 5.276 4 5 Z  M 4 1 C 4 0.724 4.224 0.5 4.5 0.5 L 13.5 0.5 C 13.776 0.5 14 0.724 14 1 C 14 1.276 13.776 1.5 13.5 1.5 L 4.5 1.5 C 4.224 1.5 4 1.276 4 1 Z  M 1 2 C 1.552 2 2 1.552 2 1 C 2 0.448 1.552 0 1 0 C 0.448 0 0 0.448 0 1 C 0 1.552 0.448 2 1 2 Z  M 1 6 C 1.552 6 2 5.552 2 5 C 2 4.448 1.552 4 1 4 C 0.448 4 0 4.448 0 5 C 0 5.552 0.448 6 1 6 Z  M 1 10 C 1.552 10 2 9.552 2 9 C 2 8.448 1.552 8 1 8 C 0.448 8 0 8.448 0 9 C 0 9.552 0.448 10 1 10 Z " fill-rule="evenodd" fill="rgb(255,255,255)"/></g></svg>