<?xml version="1.0" encoding="UTF-8" standalone="no"?><!-- Generator: Gravit.io --><svg xmlns="http://www.w3.org/2000/svg" xmlns:xlink="http://www.w3.org/1999/xlink" style="isolation:isolate" viewBox="0 0 15.542 16.368" width="15.542pt" height="16.368pt"><defs><clipPath id="_clipPath_hs2xpp9H0SRZh5HfU1Ym8M7I6LxND7Vt"><rect x="0" y="0" width="15.542" height="16.368"/></clipPath></defs><g clip-path="url(#_clipPath_hs2xpp9H0SRZh5HfU1Ym8M7I6LxND7Vt)"><path d=" M 6 0.277 C 6.2 0.52 6.231 0.86 6.08 1.135 C 5.502 2.197 5.2 3.387 5.202 4.595 C 5.202 8.616 8.48 11.872 12.52 11.872 C 13.047 11.872 13.56 11.817 14.053 11.712 C 14.362 11.645 14.681 11.77 14.863 12.028 C 15.056 12.299 15.044 12.665 14.832 12.921 C 13.244 14.873 10.86 16.003 8.344 15.999 C 3.734 15.999 0 12.285 0 7.709 C 0 4.265 2.114 1.311 5.124 0.059 C 5.432 -0.071 5.789 0.018 6 0.277 Z  M 4.858 1.31 C 2.5 2.575 1.027 5.033 1.025 7.709 C 1.025 11.729 4.304 14.985 8.344 14.985 C 10.298 14.989 12.172 14.21 13.549 12.823 C 13.212 12.865 12.869 12.886 12.52 12.886 C 7.91 12.886 4.177 9.172 4.177 4.596 C 4.177 3.429 4.419 2.318 4.858 1.31 Z " fill="rgb(255,255,255)"/><path d=" M 4.758 5.617 L 4.659 3.733 L 5.088 1.718 L 5.154 0.826 L 4.163 1.388 L 2.808 2.544 L 1.52 4.394 L 0.958 5.98 L 0.727 7.665 L 0.859 9.086 L 1.289 10.639 L 1.982 12.092 L 2.742 12.951 L 3.304 13.612 L 5.154 10.573 L 4.758 5.617 Z " fill="rgb(255,255,255)"/><path d=" M 14.042 12.522 L 11.894 12.489 L 9.515 12.257 L 7.665 11.432 L 5.584 9.515 L 4.758 8.293 L 3.932 11.398 L 3.799 12.753 L 3.833 13.348 L 4.493 14.075 L 5.617 14.306 L 7.236 14.768 L 8.425 14.868 L 10.242 14.768 L 11.531 14.339 L 13.15 13.15 L 14.042 12.522 Z " fill="rgb(255,255,255)" vector-effect="non-scaling-stroke" stroke-width="1" stroke="rgb(255,255,255)" stroke-linejoin="miter" stroke-linecap="square" stroke-miterlimit="3"/></g></svg>