<?xml version="1.0" encoding="UTF-8" standalone="no"?><!-- Generator: Gravit.io --><svg xmlns="http://www.w3.org/2000/svg" xmlns:xlink="http://www.w3.org/1999/xlink" style="isolation:isolate" viewBox="0 0 8 8" width="8pt" height="8pt"><defs><clipPath id="_clipPath_7ZnPUI8xgfZJajqxXCwjjRWdmDaQJjX0"><rect x="0" y="0" width="8" height="8"/></clipPath></defs><g clip-path="url(#_clipPath_7ZnPUI8xgfZJajqxXCwjjRWdmDaQJjX0)"><path d=" M 4 0 C 4.276 0 4.5 0.224 4.5 0.5 L 4.5 3.5 L 7.5 3.5 C 7.776 3.5 8 3.724 8 4 C 8 4.276 7.776 4.5 7.5 4.5 L 4.5 4.5 L 4.5 7.5 C 4.5 7.776 4.276 8 4 8 C 3.724 8 3.5 7.776 3.5 7.5 L 3.5 4.5 L 0.5 4.5 C 0.224 4.5 0 4.276 0 4 C 0 3.724 0.224 3.5 0.5 3.5 L 3.5 3.5 L 3.5 0.5 C 3.5 0.224 3.724 0 4 0 Z " fill="rgb(255,255,255)"/></g></svg>