<?xml version="1.0" encoding="UTF-8" standalone="no"?><!-- Generator: Gravit.io --><svg xmlns="http://www.w3.org/2000/svg" xmlns:xlink="http://www.w3.org/1999/xlink" style="isolation:isolate" viewBox="1 1 30 30" width="30pt" height="30pt"><defs><clipPath id="_clipPath_Nj2Pm9deMbrCRfuJ8MctlOdrIWUh8yPZ"><rect x="1" y="1" width="30" height="30"/></clipPath></defs><g clip-path="url(#_clipPath_Nj2Pm9deMbrCRfuJ8MctlOdrIWUh8yPZ)"><rect x="30" y="7.7" width="1" height="1" transform="matrix(1,0,0,1,0,0)" fill="rgb(255,255,255)"/><path d="M 3 1 L 3 1 L 3 31 L 3 31 C 1.896 31 1 29.656 1 28 L 1 4 C 1 2.344 1.896 1 3 1 Z" style="stroke:none;fill:#FFFFFF;stroke-miterlimit:10;"/><path d="M 29 8 L 31 8 L 31 27.972 C 31 29.643 30.104 31 29 31 L 29 31 L 29 8 Z" style="stroke:none;fill:#FFFFFF;stroke-miterlimit:10;"/><path d="M 20 3 L 22 3 L 22 9 C 22 10.104 21.104 11 20 11 L 20 11 L 20 3 Z" style="stroke:none;fill:#FFFFFF;stroke-miterlimit:10;"/><path d="M 10 3 L 12 3 L 12 11 L 12 11 C 10.896 11 10 10.104 10 9 L 10 3 Z" style="stroke:none;fill:#FFFFFF;stroke-miterlimit:10;"/><path d="M 8 19 L 8 19 L 8 29 L 6 29 L 6 22 C 6 20.344 6.896 19 8 19 Z" style="stroke:none;fill:#FFFFFF;stroke-miterlimit:10;"/><path d="M 24 19 L 24 19 C 25.104 19 26 20.344 26 22 L 26 29 L 24 29 L 24 19 Z" style="stroke:none;fill:#FFFFFF;stroke-miterlimit:10;"/><rect x="15" y="6" width="2" height="8" transform="matrix(0,-1,1,0,6,26)" fill="rgb(255,255,255)"/><path d="M 22.79 2.207 L 23.851 1.146 C 24.046 0.951 24.363 0.951 24.558 1.146 L 30.854 7.442 C 31.049 7.637 31.049 7.954 30.854 8.149 L 29.793 9.21 L 22.79 2.207 Z" style="stroke:none;fill:#FFFFFF;stroke-miterlimit:10;"/><rect x="15" y="12" width="2" height="16" transform="matrix(0,-1,1,0,-4,36)" fill="rgb(255,255,255)"/><rect x="15" y="17" width="2" height="26" transform="matrix(0,-1,1,0,-14,46)" fill="rgb(255,255,255)"/><rect x="12.5" y="-8.5" width="2" height="21" transform="matrix(0,-1,1,0,11.5,15.5)" fill="rgb(255,255,255)"/><rect x="23.201" y="1.002" width="1" height="1.535" transform="matrix(1,0,0,1,0,0)" fill="rgb(255,255,255)"/></g></svg>