<?xml version="1.0" encoding="UTF-8" standalone="no"?><!-- Generator: Gravit.io --><svg xmlns="http://www.w3.org/2000/svg" xmlns:xlink="http://www.w3.org/1999/xlink" style="isolation:isolate" viewBox="0 0 12 16" width="12pt" height="16pt"><defs><clipPath id="_clipPath_Wujxl2mJY3VaQ5uabWRHunogu2Apoy4O"><rect x="0" y="0" width="12" height="16"/></clipPath></defs><g clip-path="url(#_clipPath_Wujxl2mJY3VaQ5uabWRHunogu2Apoy4O)"><g><path d=" M 2 0 C 0.895 0 0 0.895 0 2 L 0 14 C 0 15.105 0.895 16 2 16 L 10 16 C 11.105 16 12 15.105 12 14 L 12 2 C 12 0.895 11.105 0 10 0 L 2 0 Z  M 2 1 L 10 1 C 10.552 1 11 1.448 11 2 L 11 14 C 11 14.552 10.552 15 10 15 L 2 15 C 1.448 15 1 14.552 1 14 L 1 2 C 1 1.448 1.448 1 2 1 Z " fill="rgb(255,255,255)"/></g><path d="M 2.5 7 L 3.5 7 C 3.776 7 4 7.224 4 7.5 L 4 11.5 C 4 11.776 3.776 12 3.5 12 L 2.5 12 C 2.224 12 2 11.776 2 11.5 L 2 7.5 C 2 7.224 2.224 7 2.5 7 Z" style="stroke:none;fill:#FFFFFF;stroke-miterlimit:10;"/><path d="M 5.5 5 L 6.5 5 C 6.776 5 7 5.224 7 5.5 L 7 11.5 C 7 11.776 6.776 12 6.5 12 L 5.5 12 C 5.224 12 5 11.776 5 11.5 L 5 5.5 C 5 5.224 5.224 5 5.5 5 Z" style="stroke:none;fill:#FFFFFF;stroke-miterlimit:10;"/><path d="M 8.5 9 L 9.5 9 C 9.776 9 10 9.224 10 9.5 L 10 11.5 C 10 11.776 9.776 12 9.5 12 L 8.5 12 C 8.224 12 8 11.776 8 11.5 L 8 9.5 C 8 9.224 8.224 9 8.5 9 Z" style="stroke:none;fill:#FFFFFF;stroke-miterlimit:10;"/></g></svg>