<?xml version="1.0" encoding="UTF-8" standalone="no"?><!-- Generator: Gravit.io --><svg xmlns="http://www.w3.org/2000/svg" xmlns:xlink="http://www.w3.org/1999/xlink" style="isolation:isolate" viewBox="0 0 12 10" width="12pt" height="10pt"><defs><clipPath id="_clipPath_om5jojUWPdtJ6CsvK5W8L5Qz0sJLLJXV"><rect x="0" y="0" width="12" height="10"/></clipPath></defs><g clip-path="url(#_clipPath_om5jojUWPdtJ6CsvK5W8L5Qz0sJLLJXV)"><path d=" M 4 9.5 C 4 9.224 4.224 9 4.5 9 L 11.5 9 C 11.776 9 12 9.224 12 9.5 C 12 9.776 11.776 10 11.5 10 L 4.5 10 C 4.224 10 4 9.776 4 9.5 Z  M 0 6.5 C 0 6.224 0.224 6 0.5 6 L 11.5 6 C 11.776 6 12 6.224 12 6.5 C 12 6.776 11.776 7 11.5 7 L 0.5 7 C 0.224 7 0 6.776 0 6.5 Z  M 4 3.5 C 4 3.224 4.224 3 4.5 3 L 11.5 3 C 11.776 3 12 3.224 12 3.5 C 12 3.776 11.776 4 11.5 4 L 4.5 4 C 4.224 4 4 3.776 4 3.5 Z  M 0 0.5 C 0 0.224 0.224 0 0.5 0 L 11.5 0 C 11.776 0 12 0.224 12 0.5 C 12 0.776 11.776 1 11.5 1 L 0.5 1 C 0.224 1 0 0.776 0 0.5 Z " fill-rule="evenodd" fill="rgb(255,255,255)"/></g></svg>