<?xml version="1.0" encoding="UTF-8" standalone="no"?><!-- Generator: Gravit.io --><svg xmlns="http://www.w3.org/2000/svg" xmlns:xlink="http://www.w3.org/1999/xlink" style="isolation:isolate" viewBox="0 0 12 10" width="12pt" height="10pt"><defs><clipPath id="_clipPath_zAnsIKtrJGnlct1CkzhnHDcIoTrePe8q"><rect x="0" y="0" width="12" height="10"/></clipPath></defs><g clip-path="url(#_clipPath_zAnsIKtrJGnlct1CkzhnHDcIoTrePe8q)"><path d=" M 0 0.5 C 0 0.224 0.224 0 0.5 0 L 11.5 0 C 11.776 0 12 0.224 12 0.5 C 12 0.776 11.776 1 11.5 1 L 0.5 1 C 0.224 1 0 0.776 0 0.5 Z  M 0.646 2.646 C 0.74 2.552 0.867 2.499 1 2.499 C 1.133 2.499 1.26 2.552 1.354 2.646 L 3.354 4.646 C 3.448 4.74 3.501 4.867 3.501 5 C 3.501 5.133 3.448 5.26 3.354 5.354 L 1.354 7.354 C 1.158 7.55 0.842 7.55 0.646 7.354 C 0.45 7.158 0.45 6.842 0.646 6.646 L 2.293 5 L 0.646 3.354 C 0.552 3.26 0.499 3.133 0.499 3 C 0.499 2.867 0.552 2.74 0.646 2.646 Z  M 5 3.5 C 5 3.224 5.224 3 5.5 3 L 11.5 3 C 11.776 3 12 3.224 12 3.5 C 12 3.776 11.776 4 11.5 4 L 5.5 4 C 5.224 4 5 3.776 5 3.5 Z  M 5 6.5 C 5 6.224 5.224 6 5.5 6 L 11.5 6 C 11.776 6 12 6.224 12 6.5 C 12 6.776 11.776 7 11.5 7 L 5.5 7 C 5.224 7 5 6.776 5 6.5 Z  M 0 9.5 C 0 9.224 0.224 9 0.5 9 L 11.5 9 C 11.776 9 12 9.224 12 9.5 C 12 9.776 11.776 10 11.5 10 L 0.5 10 C 0.224 10 0 9.776 0 9.5 Z " fill="rgb(255,255,255)"/></g></svg>