<?xml version="1.0" encoding="UTF-8" standalone="no"?><!-- Generator: Gravit.io --><svg xmlns="http://www.w3.org/2000/svg" xmlns:xlink="http://www.w3.org/1999/xlink" style="isolation:isolate" viewBox="0 0 12 10" width="12pt" height="10pt"><defs><clipPath id="_clipPath_hsxkzsHwReJNqfRk4budjZT2DJzhcBKP"><rect x="0" y="0" width="12" height="10"/></clipPath></defs><g clip-path="url(#_clipPath_hsxkzsHwReJNqfRk4budjZT2DJzhcBKP)"><path d=" M 2 9.5 C 2 9.224 2.224 9 2.5 9 L 9.5 9 C 9.776 9 10 9.224 10 9.5 C 10 9.776 9.776 10 9.5 10 L 2.5 10 C 2.224 10 2 9.776 2 9.5 Z  M 0 6.5 C 0 6.224 0.224 6 0.5 6 L 11.5 6 C 11.776 6 12 6.224 12 6.5 C 12 6.776 11.776 7 11.5 7 L 0.5 7 C 0.224 7 0 6.776 0 6.5 Z  M 2 3.5 C 2 3.224 2.224 3 2.5 3 L 9.5 3 C 9.776 3 10 3.224 10 3.5 C 10 3.776 9.776 4 9.5 4 L 2.5 4 C 2.224 4 2 3.776 2 3.5 Z  M 0 0.5 C 0 0.224 0.224 0 0.5 0 L 11.5 0 C 11.776 0 12 0.224 12 0.5 C 12 0.776 11.776 1 11.5 1 L 0.5 1 C 0.224 1 0 0.776 0 0.5 Z " fill-rule="evenodd" fill="rgb(255,255,255)"/></g></svg>