<?xml version="1.0" encoding="UTF-8" standalone="no"?><!-- Generator: Gravit.io --><svg xmlns="http://www.w3.org/2000/svg" xmlns:xlink="http://www.w3.org/1999/xlink" style="isolation:isolate" viewBox="0 0 12 10" width="12pt" height="10pt"><defs><clipPath id="_clipPath_YZcpmXBJGf4p97cjDR1Lq83tsjQKU9tk"><rect x="0" y="0" width="12" height="10"/></clipPath></defs><g clip-path="url(#_clipPath_YZcpmXBJGf4p97cjDR1Lq83tsjQKU9tk)"><path d=" M 0 0.5 C 0 0.224 0.224 0 0.5 0 L 11.5 0 C 11.776 0 12 0.224 12 0.5 C 12 0.776 11.776 1 11.5 1 L 0.5 1 C 0.224 1 0 0.776 0 0.5 Z  M 10.646 2.646 C 10.842 2.45 11.158 2.45 11.354 2.646 C 11.55 2.842 11.55 3.158 11.354 3.354 L 9.707 5 L 11.354 6.646 C 11.55 6.842 11.55 7.158 11.354 7.354 C 11.158 7.55 10.842 7.55 10.646 7.354 L 8.646 5.354 C 8.552 5.26 8.499 5.133 8.499 5 C 8.499 4.867 8.552 4.74 8.646 4.646 L 10.646 2.646 Z  M 0 3.5 C 0 3.224 0.224 3 0.5 3 L 6.5 3 C 6.776 3 7 3.224 7 3.5 C 7 3.776 6.776 4 6.5 4 L 0.5 4 C 0.224 4 0 3.776 0 3.5 Z  M 0 6.5 C 0 6.224 0.224 6 0.5 6 L 6.5 6 C 6.776 6 7 6.224 7 6.5 C 7 6.776 6.776 7 6.5 7 L 0.5 7 C 0.224 7 0 6.776 0 6.5 Z  M 0 9.5 C 0 9.224 0.224 9 0.5 9 L 11.5 9 C 11.776 9 12 9.224 12 9.5 C 12 9.776 11.776 10 11.5 10 L 0.5 10 C 0.224 10 0 9.776 0 9.5 Z " fill="rgb(255,255,255)"/></g></svg>