<?xml version="1.0" encoding="UTF-8" standalone="no"?><!-- Generator: Gravit.io --><svg xmlns="http://www.w3.org/2000/svg" xmlns:xlink="http://www.w3.org/1999/xlink" style="isolation:isolate" viewBox="0 0 12 16" width="12pt" height="16pt"><defs><clipPath id="_clipPath_ime7yiXzdiRCcERTFcuhIX6fWmPZagAp"><rect x="0" y="0" width="12" height="16"/></clipPath></defs><g clip-path="url(#_clipPath_ime7yiXzdiRCcERTFcuhIX6fWmPZagAp)"><g><path d=" M 8.943 4 L 3.057 4 L 3 6 L 3.5 6 C 3.68 4.904 3.856 4.808 5.194 4.765 L 5.487 4.755 L 5.487 10.845 C 5.487 11.315 5.387 11.427 4.589 11.5 L 4.589 12 L 7.41 12 L 7.41 11.5 C 6.607 11.427 6.507 11.316 6.507 10.846 L 6.507 4.755 L 6.805 4.765 C 8.143 4.808 8.319 4.905 8.499 6 L 8.999 6 L 8.942 4 L 8.943 4 Z " fill="rgb(255,255,255)"/><path d=" M 2 0 C 0.895 0 0 0.895 0 2 L 0 14 C 0 15.105 0.895 16 2 16 L 10 16 C 11.105 16 12 15.105 12 14 L 12 2 C 12 0.895 11.105 0 10 0 L 2 0 Z  M 2 1 L 10 1 C 10.552 1 11 1.448 11 2 L 11 14 C 11 14.552 10.552 15 10 15 L 2 15 C 1.448 15 1 14.552 1 14 L 1 2 C 1 1.448 1.448 1 2 1 Z " fill="rgb(255,255,255)"/></g></g></svg>