<?xml version="1.0" encoding="UTF-8" standalone="no"?><!-- Generator: Gravit.io --><svg xmlns="http://www.w3.org/2000/svg" xmlns:xlink="http://www.w3.org/1999/xlink" style="isolation:isolate" viewBox="0 0 13 15" width="13pt" height="15pt"><defs><clipPath id="_clipPath_kFu1MF2Wsgh5uK6yRBnrWGvBmPRwCqJQ"><rect x="0" y="0" width="13" height="15"/></clipPath></defs><g clip-path="url(#_clipPath_kFu1MF2Wsgh5uK6yRBnrWGvBmPRwCqJQ)"><g><path d=" M 4 5.5 C 4.276 5.5 4.5 5.724 4.5 6 L 4.5 12 C 4.5 12.276 4.276 12.5 4 12.5 C 3.724 12.5 3.5 12.276 3.5 12 L 3.5 6 C 3.5 5.724 3.724 5.5 4 5.5 Z  M 6.5 5.5 C 6.776 5.5 7 5.724 7 6 L 7 12 C 7 12.276 6.776 12.5 6.5 12.5 C 6.224 12.5 6 12.276 6 12 L 6 6 C 6 5.724 6.224 5.5 6.5 5.5 Z  M 9.5 6 C 9.5 5.724 9.276 5.5 9 5.5 C 8.724 5.5 8.5 5.724 8.5 6 L 8.5 12 C 8.5 12.276 8.724 12.5 9 12.5 C 9.276 12.5 9.5 12.276 9.5 12 L 9.5 6 Z " fill="rgb(255,255,255)"/><path d=" M 13 3 C 13 3.552 12.552 4 12 4 L 11.5 4 L 11.5 13 C 11.5 14.105 10.605 15 9.5 15 L 3.5 15 C 2.395 15 1.5 14.105 1.5 13 L 1.5 4 L 1 4 C 0.448 4 0 3.552 0 3 L 0 2 C 0 1.448 0.448 1 1 1 L 4.5 1 C 4.5 0.448 4.948 0 5.5 0 L 7.5 0 C 8.052 0 8.5 0.448 8.5 1 L 12 1 C 12.552 1 13 1.448 13 2 L 13 3 Z  M 2.618 4 L 2.5 4.059 L 2.5 13 C 2.5 13.552 2.948 14 3.5 14 L 9.5 14 C 10.052 14 10.5 13.552 10.5 13 L 10.5 4.059 L 10.382 4 L 2.618 4 Z  M 1 3 L 1 2 L 12 2 L 12 3 L 1 3 Z " fill-rule="evenodd" fill="rgb(255,255,255)"/></g></g></svg>