<?xml version="1.0" encoding="UTF-8" standalone="no"?><!-- Generator: Gravit.io --><svg xmlns="http://www.w3.org/2000/svg" xmlns:xlink="http://www.w3.org/1999/xlink" style="isolation:isolate" viewBox="0 0 40 40" width="40pt" height="40pt"><defs><clipPath id="_clipPath_zsureO2z5R4GuWmqW17C8L3byZmhqnCm"><rect x="0" y="0" width="40" height="40"/></clipPath></defs><g clip-path="url(#_clipPath_zsureO2z5R4GuWmqW17C8L3byZmhqnCm)"><clipPath id="_clipPath_ARzMzZSnGlkW6eEcB8prYAM33eUbEcVm"><rect x="0" y="0" width="40" height="40" transform="matrix(1,0,0,1,0,0)" fill="rgb(255,255,255)"/></clipPath><g clip-path="url(#_clipPath_ARzMzZSnGlkW6eEcB8prYAM33eUbEcVm)"><g><clipPath id="_clipPath_I1KBHHMw3NjhwrSjA14onDMwnTAOex0x"><rect x="0" y="0" width="40" height="40" transform="matrix(1,0,0,1,0,0)" fill="rgb(255,255,255)"/></clipPath><g clip-path="url(#_clipPath_I1KBHHMw3NjhwrSjA14onDMwnTAOex0x)"><g><g clip-path="url(#_clipPath_qYycXjUpdlJCfIWh9bAKfxkYfKsSjn7t)"><text transform="matrix(1,0,0,1,14,26.983)" style="font-family:'Noto Sans';font-weight:400;font-size:18px;font-style:normal;font-variant-ligatures:none;fill:#FFFFFF;stroke:none;">х</text></g><defs><clipPath id="_clipPath_qYycXjUpdlJCfIWh9bAKfxkYfKsSjn7t"><rect x="0" y="0" width="12" height="24.513" transform="matrix(1,0,0,1,14,7.744)"/></clipPath></defs></g></g><clipPath id="_clipPath_QTBJBC5R4Tn8UQdTc6iCMiidMIq1jeFP"><rect x="15" y="22" width="25" height="18" transform="matrix(1,0,0,1,0,0)" fill="rgb(255,255,255)"/></clipPath><g clip-path="url(#_clipPath_QTBJBC5R4Tn8UQdTc6iCMiidMIq1jeFP)"><g><g clip-path="url(#_clipPath_ihtwskttQr9gFtMapwV9v3FN4RpxKoyd)"><text transform="matrix(1,0,0,1,24.297,30.551)" style="font-family:'Noto Sans';font-weight:400;font-size:8px;font-style:normal;font-variant-ligatures:none;fill:#FFFFFF;stroke:none;">2</text></g><defs><clipPath id="_clipPath_ihtwskttQr9gFtMapwV9v3FN4RpxKoyd"><rect x="0" y="0" width="7" height="10.895" transform="matrix(1,0,0,1,24.297,22)"/></clipPath></defs></g></g></g></g></g></svg>