<?xml version="1.0" encoding="UTF-8" standalone="no"?><!-- Generator: Gravit.io --><svg xmlns="http://www.w3.org/2000/svg" xmlns:xlink="http://www.w3.org/1999/xlink" style="isolation:isolate" viewBox="0 0 40 40" width="40pt" height="40pt"><defs><clipPath id="_clipPath_op10VbxQz1kRl31LyPmOtO9sugwvZLTz"><rect x="0" y="0" width="40" height="40"/></clipPath></defs><g clip-path="url(#_clipPath_op10VbxQz1kRl31LyPmOtO9sugwvZLTz)"><clipPath id="_clipPath_0X9nJW1eUbnFGl9Sxc3p5jR4hjJkFZnc"><rect x="0" y="0" width="40" height="40" transform="matrix(1,0,0,1,0,0)" fill="rgb(255,255,255)"/></clipPath><g clip-path="url(#_clipPath_0X9nJW1eUbnFGl9Sxc3p5jR4hjJkFZnc)"><g><clipPath id="_clipPath_Bg8WXsorCdNiRRbkgyn003iFCtZuzVX4"><rect x="0" y="0" width="40" height="40" transform="matrix(1,0,0,1,0,0)" fill="rgb(255,255,255)"/></clipPath><g clip-path="url(#_clipPath_Bg8WXsorCdNiRRbkgyn003iFCtZuzVX4)"><g><g clip-path="url(#_clipPath_ZeinFxrb2RVTuFPTpQDAXrHgSEiYYMNh)"><text transform="matrix(1,0,0,1,14,26.983)" style="font-family:'Noto Sans';font-weight:400;font-size:18px;font-style:normal;font-variant-ligatures:none;fill:#FFFFFF;stroke:none;">х</text></g><defs><clipPath id="_clipPath_ZeinFxrb2RVTuFPTpQDAXrHgSEiYYMNh"><rect x="0" y="0" width="12" height="24.513" transform="matrix(1,0,0,1,14,7.744)"/></clipPath></defs></g></g><clipPath id="_clipPath_vAe5J4c5P2Rtc5eJ9JEucviW5JdR6nYh"><rect x="15" y="0" width="25" height="22" transform="matrix(1,0,0,1,0,0)" fill="rgb(255,255,255)"/></clipPath><g clip-path="url(#_clipPath_vAe5J4c5P2Rtc5eJ9JEucviW5JdR6nYh)"><g><g clip-path="url(#_clipPath_eeSLVDnV7hTF6C5b1tFZZgjOJTjBl6bA)"><text transform="matrix(1,0,0,1,24.297,19.656)" style="font-family:'Noto Sans';font-weight:400;font-size:8px;font-style:normal;font-variant-ligatures:none;fill:#FFFFFF;stroke:none;">2</text></g><defs><clipPath id="_clipPath_eeSLVDnV7hTF6C5b1tFZZgjOJTjBl6bA"><rect x="0" y="0" width="7" height="10.895" transform="matrix(1,0,0,1,24.297,11.105)"/></clipPath></defs></g></g></g></g></g></svg>